<svg xmlns="http://www.w3.org/2000/svg" viewBox="0 0 379.08 60.41">
    <defs>
        <style>.cls-1{fill:#00305d;}.cls-2{fill:#a02833;}</style>
    </defs>
    <path class="cls-1" d="M299.15,54.71a6.48,6.48,0,0,1-.17,1.58,2.4,2.4,0,0,1-.52,1,2.18,2.18,0,0,1-1,.57A5,5,0,0,1,296,58h-5a5.15,5.15,0,0,1-1.56-.21,2.21,2.21,0,0,1-1-.64,2.55,2.55,0,0,1-.54-1.06,7,7,0,0,1-.16-1.51V52.17a6.41,6.41,0,0,1,.16-1.51,2.58,2.58,0,0,1,.54-1.07,2.34,2.34,0,0,1,1-.63,5.15,5.15,0,0,1,1.56-.21h4.66a8.25,8.25,0,0,1,1.22.09,3.29,3.29,0,0,1,1.09.38,2.11,2.11,0,0,1,.78.76,2.38,2.38,0,0,1,.3,1.28v.33h-1.16a3.38,3.38,0,0,0-.12-1,1,1,0,0,0-.51-.55,3.17,3.17,0,0,0-1.09-.23h-5.05a4.58,4.58,0,0,0-.83.08,1.55,1.55,0,0,0-.68.3,1.48,1.48,0,0,0-.46.59,2.45,2.45,0,0,0-.17,1v3.43a2.45,2.45,0,0,0,.17,1,1.48,1.48,0,0,0,.46.59,1.73,1.73,0,0,0,.68.3,4.58,4.58,0,0,0,.83.08H296a2.51,2.51,0,0,0,1.46-.37,1.48,1.48,0,0,0,.53-1.32v-.92h-4.67v-1h5.91Zm-18.79-4.85L277.3,55h6.13Zm-.77-1h1.54L286.55,58h-1.4l-1.15-2h-7.31l-1.12,2h-1.4Zm-20.63,0h1v3.56h0a1.2,1.2,0,0,1,.65-.74,3.35,3.35,0,0,1,1.4-.22h1.65a8.2,8.2,0,0,1,1.64.14,2.45,2.45,0,0,1,1,.48,1.73,1.73,0,0,1,.56.86,4.38,4.38,0,0,1,.17,1.3v1.14a3.16,3.16,0,0,1-.25,1.36,2.06,2.06,0,0,1-.69.83,2.86,2.86,0,0,1-1.05.4,7.7,7.7,0,0,1-1.35.12h-1.52a3.72,3.72,0,0,1-1.47-.27A1.53,1.53,0,0,1,260,57h0v1h-1Zm7.13,5.24a2.3,2.3,0,0,0-.14-.9,1.13,1.13,0,0,0-.41-.53,1.75,1.75,0,0,0-.7-.26,5.61,5.61,0,0,0-1-.07H262.4a8.39,8.39,0,0,0-1,.06,2,2,0,0,0-.74.25,1.13,1.13,0,0,0-.46.55,2.26,2.26,0,0,0-.17.93v1.22a2.65,2.65,0,0,0,.11.79,1.25,1.25,0,0,0,.35.58,1.53,1.53,0,0,0,.66.36,3.76,3.76,0,0,0,1,.13h1.77a3.86,3.86,0,0,0,1.07-.12,1.43,1.43,0,0,0,.67-.34,1.12,1.12,0,0,0,.32-.57,3.72,3.72,0,0,0,.09-.81ZM249,54a3,3,0,0,1,.28-1.38,2,2,0,0,1,.72-.79,2.78,2.78,0,0,1,1-.35,8.72,8.72,0,0,1,1.14-.07h1.74a6.83,6.83,0,0,1,1.35.11,2.9,2.9,0,0,1,1,.42,2.12,2.12,0,0,1,.69.85,3.2,3.2,0,0,1,.26,1.4V55h-7.15v.41a2.3,2.3,0,0,0,.14.9,1.11,1.11,0,0,0,.44.56,2.13,2.13,0,0,0,.81.29,6.07,6.07,0,0,0,1.2.09h1.49a8.46,8.46,0,0,0,.87,0,1.64,1.64,0,0,0,.61-.17.87.87,0,0,0,.36-.35,1.54,1.54,0,0,0,.14-.59h1.09v.12a1.75,1.75,0,0,1-.23.92,1.52,1.52,0,0,1-.64.59,3.15,3.15,0,0,1-1,.31,7.67,7.67,0,0,1-1.35.1h-2a6.8,6.8,0,0,1-1-.13,2.4,2.4,0,0,1-1-.35,2.16,2.16,0,0,1-.71-.79,3.16,3.16,0,0,1-.27-1.42Zm7.15-.4a1.13,1.13,0,0,0-.11-.48,1,1,0,0,0-.36-.42,2.13,2.13,0,0,0-.69-.3,4.52,4.52,0,0,0-1.1-.11h-1.58a6.29,6.29,0,0,0-1.06.07,1.49,1.49,0,0,0-.67.26,1,1,0,0,0-.35.53,3.76,3.76,0,0,0-.14.88h6.06Zm-20.93-2.09h1.15l2.51,5.55,2-5.55h1.56l2.05,5.55L247,51.51h1.14L245.28,58h-1.5l-2.06-5.55L239.67,58h-1.5Zm-7.12,7.94a8.34,8.34,0,0,0,1,0,1.6,1.6,0,0,0,.68-.18,1.27,1.27,0,0,0,.47-.42,3.8,3.8,0,0,0,.41-.77h-.26l-3.64-6.53H228l3.11,5.68,2.8-5.68h1.17l-3.63,7.22a4.4,4.4,0,0,1-.49.8,1.59,1.59,0,0,1-.6.49,2.73,2.73,0,0,1-.89.24c-.36,0-.82.06-1.37.07ZM217.83,54a3,3,0,0,1,.28-1.38,2,2,0,0,1,.72-.79,2.78,2.78,0,0,1,1-.35,8.72,8.72,0,0,1,1.14-.07h1.74a6.83,6.83,0,0,1,1.35.11,2.9,2.9,0,0,1,1.05.42,2.12,2.12,0,0,1,.69.85,3.2,3.2,0,0,1,.26,1.4V55h-7.15v.41a2.3,2.3,0,0,0,.14.9,1.11,1.11,0,0,0,.44.56,2.13,2.13,0,0,0,.81.29,6.07,6.07,0,0,0,1.2.09H223a8.46,8.46,0,0,0,.87,0,1.64,1.64,0,0,0,.61-.17.87.87,0,0,0,.36-.35A1.58,1.58,0,0,0,225,56h1.09v.12a1.75,1.75,0,0,1-.23.92,1.52,1.52,0,0,1-.64.59,3.15,3.15,0,0,1-1,.31,7.67,7.67,0,0,1-1.35.1h-2A7.59,7.59,0,0,1,219.8,58a2.4,2.4,0,0,1-1-.35,2.16,2.16,0,0,1-.71-.79,3.16,3.16,0,0,1-.27-1.42Zm7.15-.4a1.13,1.13,0,0,0-.11-.48,1,1,0,0,0-.36-.42,2.13,2.13,0,0,0-.69-.3,4.52,4.52,0,0,0-1.1-.11h-1.58a6.29,6.29,0,0,0-1.06.07,1.49,1.49,0,0,0-.67.26,1,1,0,0,0-.35.53,3.76,3.76,0,0,0-.14.88H225Zm-19.11-4.79h1.23v3.87h1.55l5.73-3.87h2l-6.54,4.36L217,58h-2.17l-6.27-4.25H207.1V58h-1.23ZM191.55,59.49a8.34,8.34,0,0,0,1,0,1.6,1.6,0,0,0,.68-.18,1.36,1.36,0,0,0,.47-.42,4.37,4.37,0,0,0,.41-.77h-.26l-3.65-6.53h1.23l3.11,5.68,2.8-5.68h1.17l-3.63,7.22a5,5,0,0,1-.49.8,1.59,1.59,0,0,1-.6.49,2.79,2.79,0,0,1-.9.24c-.35,0-.81.06-1.36.07ZM181.22,48.85h1.09v3.56h0a1.28,1.28,0,0,1,.65-.74,3.39,3.39,0,0,1,1.41-.22H186a8.1,8.1,0,0,1,1.63.14,2.58,2.58,0,0,1,1.05.48,1.82,1.82,0,0,1,.56.86,4.37,4.37,0,0,1,.16,1.3v1.14a3.31,3.31,0,0,1-.24,1.36,2.06,2.06,0,0,1-.69.83,2.84,2.84,0,0,1-1.06.4,7.7,7.7,0,0,1-1.35.12h-1.51a3.74,3.74,0,0,1-1.48-.27,1.48,1.48,0,0,1-.85-.85h0v1h-1Zm7.14,5.24a2.5,2.5,0,0,0-.14-.9,1.1,1.1,0,0,0-.42-.53,1.61,1.61,0,0,0-.7-.26,5.61,5.61,0,0,0-1-.07h-1.47a8.39,8.39,0,0,0-1,.06,1.87,1.87,0,0,0-.73.25,1.2,1.2,0,0,0-.47.55,2.25,2.25,0,0,0-.16.93v1.22a2.64,2.64,0,0,0,.1.79,1.27,1.27,0,0,0,.36.58,1.49,1.49,0,0,0,.65.36,3.76,3.76,0,0,0,1,.13h1.76a3.94,3.94,0,0,0,1.08-.12,1.39,1.39,0,0,0,.66-.34,1.13,1.13,0,0,0,.33-.57,3.72,3.72,0,0,0,.09-.81Z"/>
    <path class="cls-1" d="M323.72,25.05v-5.7a9.18,9.18,0,0,0-9.18-9.18H307c5.11.26,9.83,1.84,9.83,9.38v5.22c0,8.47-6.27,9.43-9.8,9.43h7.56A9.18,9.18,0,0,0,323.78,25h0"/>
    <path class="cls-1" d="M314.4,25.05v-5.7a9.18,9.18,0,0,0-9.18-9.18h-7.57c5.11.26,9.83,1.84,9.83,9.38v5.22c0,8.47-6.27,9.43-9.8,9.43h7.56A9.18,9.18,0,0,0,314.43,25h0"/>
    <polygon class="cls-1" points="74.06 33.89 81.52 33.89 81.52 19.82 85.32 19.82 104.02 33.89 114.69 33.89 92.27 16.97 114.25 0.77 102.46 0.77 85.6 13.62 81.52 13.62 81.52 0.77 74.06 0.77 74.06 33.89"/>
    <path class="cls-1" d="M150.44,42.12c7.94.16,10.81-.43,13.24-5.24l13.68-26.31h-7l-8.67,17.66L153,10.57h-7.14L157.09,33l1.13,2.3c-1.19,2.08-1.74,2.22-7.78,2.22Z"/>
    <path class="cls-1" d="M121.62,19.85c0-4.44.9-5.24,8.4-5.24,6.72,0,8.4.8,8.4,5.24ZM121.56,25V23.56H144.8V20.28c0-8.33-5.08-10.11-12.13-10.11h-6.31c-5.58,0-11.44,1-11.44,9.42v5.08c0,8.6,5.86,9.56,11,9.56H133c7.32,0,11.76-1.46,11.76-7.63v-.45h-6.24c0,3.48-2,3.86-6.91,3.86H129c-6.87,0-7.4-1.57-7.4-5"/>
    <path class="cls-1" d="M364.72,19.75c-2.4,0-3.28.18-3.75.76a4.3,4.3,0,0,0-.53,2.58c0,1.47.2,2.31.67,2.75s1.41.62,3.59.62c2.36,0,3.24-.18,3.72-.77a4.4,4.4,0,0,0,.53-2.54c0-1.5-.2-2.33-.68-2.78S366.86,19.75,364.72,19.75Z"/>
    <path class="cls-1" d="M342,16.45h-7.92v5h7.63c2.64,0,3.22-.46,3.22-2.49S344.39,16.45,342,16.45Z"/>
    <path class="cls-1" d="M369.87,10.17h-53.5c5.11.26,9.83,1.84,9.83,9.38v5.22c0,8.47-6.27,9.43-9.8,9.43h53.5A9.18,9.18,0,0,0,379.08,25v-5.7a9.18,9.18,0,0,0-9.21-9.15ZM345.52,22a4,4,0,0,1-2.69.68h-8.71v4.79h-1.46V15.22h9.84c1.92,0,2.67.19,3.26.81s.73,1.34.73,2.8C346.49,20.62,346.25,21.37,345.52,22Zm11.93.53h-1.29V22c0-1.86-.54-2.28-2.91-2.28-2.6,0-3.59.71-3.59,2.59V27.4h-1.3V18.78h1.3v1.7c.47-1.47,1.26-1.83,3.93-1.83,3,0,3.86.75,3.86,3.33Zm11.81,4.21c-.73.64-1.92.86-4.58.86s-3.82-.22-4.55-.86-1.06-1.72-1.06-3.61.31-2.92,1.06-3.58,1.92-.86,4.55-.86,3.85.22,4.58.86,1.06,1.72,1.06,3.66S370,26,369.26,26.7Z"/>
    <polygon class="cls-1" points="102.02 0.66 85.15 13.52 81.06 13.52 81.06 0.66 73.61 0.66 73.61 33.81 81.06 33.81 81.06 19.73 84.88 19.73 103.58 33.81 114.26 33.81 91.82 16.87 113.82 0.66 102.02 0.66"/>
    <path class="cls-1" d="M150,42c7.95.16,10.82-.44,13.25-5.25L177,10.47h-7l-8.67,17.67-8.74-17.67h-7.14l11.23,22.4,1.13,2.3c-1.19,2.08-1.74,2.22-7.78,2.22Z"/>
    <path class="cls-1" d="M121.19,19.76c0-4.45.9-5.25,8.41-5.25,6.72,0,8.4.8,8.4,5.25Zm-.06,5.17V23.47h23.25V20.18c0-8.33-5.08-10.12-12.13-10.12h-6.31c-5.59,0-11.45,1-11.45,9.43v5.09c0,8.6,5.86,9.56,11,9.56h7.14c7.32,0,11.76-1.47,11.76-7.63v-.46h-6.24c0,3.49-2,3.87-6.91,3.87h-2.7c-6.86,0-7.4-1.57-7.4-5"/>
    <path class="cls-1" d="M270.92,24.77c0,8.47,6.28,9.43,9.8,9.43h8.88c7.33,0,10.26-2.29,10.26-8.19v-.69h-3.67v.78c0,3.8-3.06,4.9-6.73,4.9h-6.63c-4.76,0-8-1.19-8-6.41v-4.9c0-5.81,3.48-6.36,7.19-6.36h7.23c3.94,0,6.5.91,6.5,4.8v.55h3.66V18c0-4.94-2.88-7.92-10.2-7.92h-6.6c-5.76,0-11.72,1-11.72,9.43ZM237.23,27.2c0,7,5.45,7,11.26,7h7.24c4.8,0,10.85-.23,10.85-6.77v-.09c0-6.32-4-6.92-9.94-6.92H246.25c-4.12,0-4.76-1.1-4.76-3v-.87c0-2.65,1.23-3.2,6.87-3.2h6.86c4.31,0,6.69.09,6.69,3.66v.23h3.66V16c0-3.29-1.24-5.86-10.12-5.86h-6c-9.71,0-11.86,2.11-11.86,5.91V17.4c0,4.44,2.06,6.23,7.6,6.23h12.13c4.72,0,5.36,1.23,5.36,3.48v.18c0,3.48-1.88,3.71-7.78,3.71h-8.43c-4,0-5.54-1.19-5.54-4.08V25.78h-3.66ZM227.8,5h3.94V.69H227.8Zm0,28.84h3.94V10.49H227.8Zm-47.56,0h26.64c11.26,0,14.28-4.4,14.28-16.58,0-13.09-3-16.57-14.14-16.57H180.24Zm36.44-14.79c0,9.93-3.76,11.12-9.2,11.12H184.72V4.35h23.49c5.49,0,8.47,1.74,8.47,11.31Z"/>
    <path class="cls-2" d="M51.51,41.57a3.65,3.65,0,0,1,2.05.63l-4-19.2A2.68,2.68,0,0,0,47,21H28.64a2.68,2.68,0,0,0-2.51,2l-4,19.23a3.67,3.67,0,0,1,2-.63Z"/>
    <path class="cls-2" d="M49.76,46.67H44.5A.63.63,0,0,1,44,46a.64.64,0,0,1,.55-.55h5.26a.63.63,0,0,1,.55.7.64.64,0,0,1-.55.55M24.14,51.19H51.51a2.43,2.43,0,0,0,2.41-2.42V45.23A2.33,2.33,0,0,0,53.55,44a2.4,2.4,0,0,0-2-1.13H24.14a2.39,2.39,0,0,0-2,1.13,2.34,2.34,0,0,0-.38,1.28v3.54a2.41,2.41,0,0,0,2.4,2.42h0"/>
    <path class="cls-1" d="M11.19,44.84c-8.46,0-8.6-8.25-8.6-8.6V2.59H36.24c8.46,0,8.61,8.26,8.61,8.61v4h2.59v-4C47.44,7.32,45.1,0,36.24,0H0V36.24c0,3.87,2.34,11.19,11.19,11.19h4.42V44.84Z"/>
    <path class="cls-1" d="M270.92,24.77c0,8.47,6.28,9.43,9.8,9.43h8.88c7.33,0,10.26-2.29,10.26-8.19v-.69h-3.67v.78c0,3.8-3.06,4.9-6.73,4.9h-6.63c-4.76,0-8-1.19-8-6.41v-4.9c0-5.81,3.48-6.36,7.19-6.36h7.23c3.94,0,6.5.91,6.5,4.8v.55h3.66V18c0-4.94-2.88-7.92-10.2-7.92h-6.6c-5.76,0-11.72,1-11.72,9.43ZM237.23,27.2c0,7,5.45,7,11.26,7h7.24c4.8,0,10.85-.23,10.85-6.77v-.09c0-6.32-4-6.92-9.94-6.92H246.25c-4.12,0-4.76-1.1-4.76-3v-.87c0-2.65,1.23-3.2,6.87-3.2h6.86c4.31,0,6.69.09,6.69,3.66v.23h3.66V16c0-3.29-1.24-5.86-10.12-5.86h-6c-9.71,0-11.86,2.11-11.86,5.91V17.4c0,4.44,2.06,6.23,7.6,6.23h12.13c4.72,0,5.36,1.23,5.36,3.48v.18c0,3.48-1.88,3.71-7.78,3.71h-8.43c-4,0-5.54-1.19-5.54-4.08V25.78h-3.66ZM227.8,5h3.94V.69H227.8Zm0,28.84h3.94V10.49H227.8Zm-47.56,0h26.64c11.26,0,14.28-4.4,14.28-16.58,0-13.09-3-16.57-14.14-16.57H180.24Zm36.44-14.79c0,9.93-3.76,11.12-9.2,11.12H184.72V4.35h23.49c5.49,0,8.47,1.74,8.47,11.31Z"/>
</svg>