<svg xmlns="http://www.w3.org/2000/svg" viewBox="0 0 192.49899 191.82296">
    <defs>
        <style>.cls-1 {fill: #a02833;}</style>
    </defs>
    <g>
      <path class="cls-1" d="M72.97315,47.88893A12.406,12.406,0,1,0,85.37891,60.29518,12.42021,12.42021,0,0,0,72.97315,47.88893Z"/>
      <path class="cls-1" d="M191.64185,84.44191H168.916V60.33522H132.97529V36.66688h24.10662V21.77009A95.64,95.64,0,0,0,1.04609,95.93025q0,3.95425.32055,7.82831c29.56055,11.7879,64.32294,17.73443,100.6612,16.95361,32.30371-.68567,63.14306-6.623,89.9945-17.08734q.303-3.80786.30872-7.69458A96.587,96.587,0,0,0,191.64185,84.44191Zm-118.6687,5.259a29.406,29.406,0,1,1,29.40576-29.40576A29.4391,29.4391,0,0,1,72.97315,89.70094Z"/>
      <path class="cls-1" d="M145.24775,128.69923a297.74811,297.74811,0,0,1-42.965,4.011q-3.26.06885-6.5083.06836c-32.942,0-64.5528-5.332-92.3103-15.39154A95.65826,95.65826,0,0,0,168.916,158.6252V143.61281H145.24775Z"/>
    </g>
</svg>
