<?xml version="1.0" standalone="no"?>
<!DOCTYPE svg PUBLIC "-//W3C//DTD SVG 20010904//EN"
 "http://www.w3.org/TR/2001/REC-SVG-20010904/DTD/svg10.dtd">
<svg version="1.0" xmlns="http://www.w3.org/2000/svg"
 width="700.000000pt" height="700.000000pt" viewBox="0 0 700.000000 700.000000"
 preserveAspectRatio="xMidYMid meet">
<metadata>
Created by potrace 1.14, written by Peter Selinger 2001-2017
</metadata>
<g transform="translate(0.000000,700.000000) scale(0.100000,-0.100000)"
fill="#000000" stroke="none">
<path d="M13 4463 c1 -1396 6 -2551 10 -2568 4 -16 9 -43 12 -60 3 -16 8 -41
11 -55 3 -14 7 -34 9 -45 3 -11 15 -56 29 -100 156 -518 502 -862 984 -976 46
-11 100 -22 120 -25 20 -2 55 -7 77 -10 22 -4 203 -8 403 -9 l362 -2 1 26 c3
97 1 313 -4 317 -2 3 -164 6 -358 6 -376 2 -461 10 -609 59 -351 117 -599 419
-685 834 -7 39 -17 84 -22 100 -4 17 -8 1080 -10 2363 l-3 2332 68 1 c361 3
4424 0 4447 -5 17 -3 53 -8 80 -12 72 -9 210 -50 284 -85 245 -114 428 -331
527 -624 20 -59 38 -120 40 -134 3 -14 9 -42 14 -61 18 -77 24 -168 26 -460 1
-168 3 -308 3 -311 2 -11 331 -5 332 6 0 5 1 134 1 285 1 240 -4 381 -17 470
-9 61 -17 106 -21 122 -3 9 -7 27 -9 39 -27 139 -138 395 -231 536 -73 108
-212 254 -312 326 -80 58 -215 133 -282 156 -70 25 -196 62 -230 67 -196 33
-183 32 -2628 33 l-2422 1 3 -2537z"/>
<path d="M4035 4251 c-142 -50 -325 -135 -325 -150 0 -3 6 -40 14 -82 26 -149
6 -294 -60 -424 -87 -172 -281 -337 -465 -395 -77 -24 -191 -31 -289 -16 l-55
8 -39 -84 c-40 -85 -109 -262 -121 -308 -5 -23 1 -30 52 -65 118 -80 222 -194
276 -302 151 -296 31 -689 -275 -905 -32 -23 -58 -44 -58 -48 0 -28 99 -281
149 -377 20 -40 22 -41 53 -32 51 15 106 21 188 20 82 0 95 -2 179 -27 199
-57 380 -240 451 -454 24 -73 33 -216 19 -295 -22 -127 -33 -107 83 -163 89
-42 225 -96 293 -116 16 -5 26 4 50 42 49 78 191 212 275 259 127 71 217 96
345 97 127 0 204 -17 311 -69 128 -63 250 -170 326 -286 17 -27 32 -49 33 -49
4 0 102 33 120 40 147 59 245 105 293 135 1 1 -4 34 -11 74 -18 95 -15 240 8
316 66 224 246 406 510 516 37 16 138 26 209 22 154 -9 136 -14 167 47 31 60
123 290 132 331 6 23 -1 31 -62 73 -252 171 -362 395 -328 667 12 100 72 224
151 317 51 59 152 147 208 181 l37 22 -13 42 c-25 83 -65 184 -110 280 l-46
98 -57 -8 c-193 -27 -355 17 -510 138 -119 93 -189 175 -243 284 -73 145 -88
309 -45 476 6 25 1 28 -89 73 -93 45 -246 107 -296 119 -22 5 -30 -1 -60 -45
-46 -68 -154 -178 -210 -214 -25 -16 -47 -32 -50 -35 -11 -13 -142 -70 -197
-85 -82 -22 -215 -26 -296 -9 -85 18 -190 63 -265 112 -71 47 -198 173 -237
235 -17 27 -32 48 -35 48 -3 0 -41 -13 -85 -29z m916 -1185 c206 -45 397 -160
528 -318 68 -81 160 -257 185 -353 65 -251 21 -530 -119 -746 -134 -207 -364
-364 -595 -406 -87 -15 -309 -9 -385 11 -308 82 -547 307 -648 608 -37 110
-42 146 -42 298 0 214 56 386 177 550 136 183 371 328 573 355 28 4 52 9 54
11 6 6 240 -3 272 -10z"/>
</g>
</svg>
