<svg id="Ebene_1" data-name="Ebene 1" xmlns="http://www.w3.org/2000/svg" viewBox="0 0 384.40001 308">
  <g>
    <path d="M93.3,121.2c-15,15-27.6,28.1-27.9,29.1-.5,1.6,5.1,7.7,27.2,29.8L120.5,208h17.7c9.8,0,17.8-.3,17.8-.7s-8.9-9.7-19.7-20.6c-15.7-15.7-19.5-20-18.3-20.7.9-.6,25.7-1,61.3-1H239V151.6c0-11.3-.2-13.5-1.6-14-.9-.3-28.3-.6-61-.6s-59.4-.3-59.4-.8c0-.4,9-9.7,19.9-20.6,11-11,19.8-20.3,19.5-20.8-.3-.4-8.4-.8-18.1-.8H120.7Z" transform="translate(-64 -93.99999)"/>
    <path d="M356,94.7c0,.4,8.8,9.6,19.6,20.4,11.5,11.5,19.4,20.1,19,20.8-.5.8-17.8,1.1-61.1,1.1-54,0-60.3.2-60.9,1.6-.3.9-.6,6.7-.6,12.9,0,10.3.2,11.5,1.9,12.5,1.3.6,22.4,1,61.5,1,32.8,0,59.6.3,59.6.8,0,.4-9,9.7-20,20.7s-20,20.3-20,20.7c0,.5,8.2.8,18.2.8h18.2l28.5-28.6,28.5-28.5-28.5-28.5L391.5,94H373.8C364,94,356,94.3,356,94.7Z" transform="translate(-64 -93.99999)"/>
    <path d="M64,280.3V396.6l2.8,2.7,2.8,2.7h373l2.7-2.8,2.7-2.8V280.8c0-63.6-.4-115.9-.8-116.2-.5-.3-4.1,2.7-8,6.7l-7.2,7.2-.2,103-.3,103H80.5l-.3-103-.2-103-7.2-7.2c-4-4-7.6-7.3-8-7.3C64.3,164,64,216.3,64,280.3Z" transform="translate(-64 -93.99999)"/>
    <path d="M129,214.8c0,.4,8.4,9.2,18.8,19.5L166.5,253h179l18.8-18.8c10.3-10.3,18.7-19.1,18.7-19.5s-7.5-.7-16.8-.7H349.4l-6.9,7-6.9,7H176.4l-6.9-7-6.9-7H145.8C136.5,214,129,214.3,129,214.8Z" transform="translate(-64 -93.99999)"/>
  </g>
</svg>
